<svg width="12" height="16" viewBox="0 0 12 16" fill="none" xmlns="http://www.w3.org/2000/svg">
<path d="M10.7628 3.26521C10.56 3.23036 10.3695 3.23452 10.1902 3.27715C10.1828 3.01135 10.1705 2.74479 10.1523 2.47842L10.1523 2.47558C10.119 2.08133 9.95664 1.75453 9.66507 1.49517C9.36479 1.22709 9.01563 1.10679 8.61703 1.13407C8.30254 1.1551 8.02878 1.26385 7.795 1.45993C7.77453 1.31102 7.7537 1.21023 7.73342 1.15756L7.73058 1.15169C7.57561 0.736034 7.30754 0.417943 6.92636 0.1978L6.92352 0.194769C6.51089 -0.0473508 6.06397 -0.0638332 5.58182 0.144754L5.58504 0.144754C5.09474 0.33932 4.7973 0.76104 4.69272 1.4101L4.69272 1.40423C4.67453 1.49895 4.66108 1.60372 4.65142 1.71815C4.60804 1.69049 4.56181 1.6651 4.51331 1.64199L4.50744 1.63896C4.15241 1.47793 3.78942 1.45955 3.41847 1.58307C3.4162 1.58421 3.41317 1.58516 3.40976 1.58629C3.03995 1.72061 2.76676 1.95743 2.59076 2.29655L2.59076 2.29352C2.42271 2.58925 2.36303 3.00301 2.41172 3.53518L2.40869 3.53518C2.44014 3.92166 2.7912 5.52329 3.46242 8.34044C3.44878 8.33248 3.43495 8.32471 3.42131 8.31695L3.42434 8.31695C3.08011 8.11385 2.70158 7.95831 2.2882 7.85033L2.29123 7.85317C1.82992 7.72453 1.33772 7.76981 0.815023 7.98825C0.194568 8.24211 -0.0718008 8.71745 0.0164838 9.41501L0.0164838 9.41785C0.0826024 10.0896 0.527814 10.5239 1.35212 10.7211C1.87766 10.8452 2.22587 10.9685 2.39714 11.0911L2.40017 11.0937C2.55438 11.2296 2.71882 11.4518 2.89331 11.7602C2.89407 11.7621 2.89501 11.7642 2.89615 11.7661C3.13676 12.2073 3.50278 12.5508 3.99402 12.7963L3.99099 12.7963C4.13592 12.8708 4.28445 12.9363 4.43715 12.9932C4.27858 13.2378 4.20697 13.4511 4.22307 13.633C4.19901 14.24 4.55821 14.7255 5.30029 15.0889L5.29726 15.0861C5.80272 15.342 6.36331 15.5083 6.97941 15.5851L6.98244 15.5851C7.60441 15.6597 8.22865 15.5911 8.85517 15.3797L8.8582 15.3769C9.59668 15.1401 9.98146 14.5452 10.0118 13.5922C10.0135 13.5416 10.0067 13.4947 9.9915 13.4513C11.4131 12.6433 11.8191 11.0248 11.2097 8.59639C11.6079 7.37291 11.8692 6.11154 11.9932 4.81247L11.9932 4.80962C12.0285 4.4419 11.9258 4.10714 11.685 3.80572C11.4419 3.50354 11.135 3.32357 10.7628 3.26521ZM10.4017 8.44918C10.3765 8.5261 10.3748 8.6034 10.3958 8.68107C11.0206 11.0676 10.504 12.5224 8.84588 13.0459C8.73922 13.0775 8.65909 13.1417 8.60528 13.2397C8.55186 13.338 8.54106 13.4409 8.5727 13.5477C8.60415 13.6546 8.66856 13.7349 8.7665 13.7885C8.86483 13.8421 8.96751 13.8527 9.07455 13.8209C9.11093 13.8109 9.14711 13.8001 9.1833 13.7885C9.12248 14.2064 8.92602 14.4813 8.59334 14.6134L8.59638 14.6103C8.08865 14.7822 7.58262 14.839 7.07849 14.7807C6.55977 14.7166 6.08709 14.5776 5.6612 14.3639L5.65798 14.3608C5.26468 14.1684 5.05609 13.9259 5.0326 13.6328C5.05268 13.5286 5.1349 13.3897 5.27945 13.216C5.33894 13.2264 5.39862 13.2349 5.4583 13.2425C5.56913 13.2563 5.66859 13.2289 5.75763 13.1603C5.84573 13.0911 5.89669 13.0011 5.91052 12.8903C5.92435 12.7795 5.89707 12.6795 5.82811 12.5908C5.75915 12.5029 5.66916 12.4519 5.55814 12.4381C5.12884 12.3854 4.72967 12.2642 4.36042 12.0742L4.35739 12.0742C4.02112 11.9061 3.76952 11.6721 3.60319 11.3726L3.60015 11.3667C3.36201 10.9446 3.13278 10.6453 2.91339 10.4686L2.91036 10.4655C2.69666 10.2761 2.23951 10.0989 1.53949 9.93411C1.12004 9.83408 0.880195 9.62757 0.820328 9.31479L0.820328 9.31176C0.784332 9.03232 0.886068 8.83964 1.12572 8.73355C1.46371 8.59222 1.7818 8.55888 2.0798 8.6339L2.08265 8.63693C2.42101 8.72446 2.73114 8.85063 3.01323 9.01564L3.01626 9.01564C3.36353 9.21836 3.67082 9.34264 3.93795 9.3883C3.9459 9.39076 3.95367 9.39265 3.96144 9.39417C3.97659 9.39682 3.99251 9.3989 4.00842 9.40004C4.13763 9.40914 4.37937 9.40516 4.73383 9.3883L4.73952 9.3883C5.01801 9.37788 5.36717 9.46408 5.78737 9.64652L5.78737 9.64936C6.1983 9.83502 6.53211 10.1902 6.78825 10.715C6.8377 10.8151 6.91461 10.8836 7.02014 10.9204C7.12547 10.9573 7.22816 10.9515 7.32857 10.9028C7.42879 10.8537 7.49756 10.7762 7.53412 10.6709C7.57087 10.5661 7.56519 10.4634 7.51631 10.3626C7.16204 9.63477 6.69352 9.14845 6.11039 8.90387L6.11039 8.90671C5.54696 8.66004 5.07636 8.55054 4.69841 8.57801L4.69272 8.57801C4.56238 8.58407 4.44985 8.58824 4.35512 8.58995C3.63293 5.57027 3.25422 3.8618 3.21898 3.4649L3.21595 3.4649C3.18639 3.12805 3.21651 2.8649 3.30688 2.67526L3.30688 2.67204C3.38797 2.52086 3.51111 2.4142 3.67688 2.35225C3.67972 2.35111 3.68257 2.35016 3.68541 2.34903C3.84947 2.29674 4.00994 2.30564 4.1668 2.37555C4.16889 2.3765 4.17097 2.37763 4.17287 2.37858C4.31685 2.44849 4.4165 2.55799 4.47239 2.70728L4.46917 2.70425C4.55708 2.94694 4.6374 3.19171 4.70996 3.43818C4.71186 3.44557 4.71394 3.45334 4.71584 3.46149C4.72929 3.49995 4.76149 3.60679 4.81284 3.78147C4.81416 3.79037 4.81625 3.79928 4.81871 3.80799C5.06575 4.65503 5.29575 5.78511 5.5085 7.19842C5.5248 7.30944 5.57746 7.39848 5.66688 7.46536C5.75763 7.53167 5.85842 7.55611 5.96944 7.53887C6.07932 7.52276 6.16741 7.46991 6.23391 7.3803C6.29965 7.29031 6.32428 7.19047 6.30723 7.08096C6.0905 5.62787 5.85558 4.46444 5.60266 3.59088C5.45356 2.67299 5.41624 1.99115 5.49107 1.54499L5.49107 1.53893C5.5426 1.21705 5.67977 1.0007 5.90199 0.890246L5.90484 0.890246C6.12744 0.793815 6.33394 0.796847 6.52453 0.899151L6.52131 0.89612C6.73331 1.01926 6.88316 1.1964 6.9705 1.42753C7.06409 1.72308 7.1914 3.57042 7.35225 6.96938C7.35187 6.9743 7.35187 6.97923 7.35225 6.98396C7.35679 7.09309 7.3998 7.18516 7.48145 7.25999C7.5633 7.33558 7.65916 7.37196 7.76923 7.36855C7.87987 7.36457 7.97384 7.3227 8.05094 7.24238C8.1271 7.16243 8.16443 7.06751 8.16234 6.95763C8.16234 6.9527 8.16234 6.94778 8.16234 6.94285C8.11934 4.21096 8.09414 2.77264 8.08618 2.6279L8.08618 2.62222C8.07387 2.4483 8.12256 2.2956 8.23282 2.16431L8.23566 2.16128C8.35217 2.02885 8.49729 1.95648 8.67045 1.94417C8.84342 1.93223 8.99498 1.98414 9.12533 2.09971C9.25548 2.21527 9.32766 2.36115 9.34244 2.53696C9.36195 2.81205 9.37521 3.08694 9.38355 3.36184C9.38715 3.55659 9.38904 3.75741 9.38923 3.96353C9.38753 3.98286 9.38753 4.00237 9.38923 4.02226C9.38791 5.0167 9.31857 6.15833 9.18084 7.44793C9.16909 7.55857 9.19845 7.65728 9.26893 7.74442C9.33865 7.83176 9.42902 7.88178 9.5389 7.89409C9.64973 7.90584 9.74824 7.87647 9.8352 7.80599C9.92254 7.73628 9.97274 7.6461 9.98506 7.53584C10.1203 6.27162 10.1916 5.14533 10.1993 4.15734C10.2022 4.15564 10.205 4.15355 10.2082 4.15147C10.3312 4.06565 10.4723 4.03628 10.6307 4.06337L10.6339 4.06337C10.802 4.09103 10.9407 4.17307 11.0503 4.31004C11.1534 4.4383 11.1996 4.5802 11.1886 4.73555C11.0657 6.0117 10.8031 7.24957 10.4017 8.44918Z" fill="#EAEAEA"/>
</svg>
