<svg width="11" height="12" viewBox="0 0 11 12" fill="none" xmlns="http://www.w3.org/2000/svg">
<path d="M10.3327 4.0526C10.0514 3.72774 9.71378 3.56734 9.32015 3.57139C9.30977 3.57139 9.29939 3.57139 9.28901 3.57139C9.23273 3.16025 9.08076 2.7822 8.83278 2.43674L8.82954 2.43349C8.43964 1.90623 7.96979 1.64786 7.42014 1.65857C7.2886 1.65889 7.16031 1.67349 7.03559 1.70236C7.00445 1.65435 6.97104 1.60326 6.93585 1.54925C6.93017 1.54293 6.92514 1.5366 6.92011 1.53044C6.67667 1.18239 6.2871 1.00836 5.75107 1.00852C5.45216 0.996197 5.1479 1.10146 4.83861 1.32414C4.77731 1.21774 4.70967 1.11573 4.63555 1.01793C4.59987 0.967003 4.55397 0.908778 4.49802 0.842768C4.47726 0.818765 4.45423 0.79687 4.42909 0.777083C4.42293 0.772379 4.41563 0.767189 4.4072 0.761351C3.9341 0.2443 3.46392 -0.00903549 2.99796 0.00199319C2.51545 -0.025092 2.04771 0.223864 1.5944 0.748862L1.59148 0.752106C0.822063 1.61137 0.669932 2.70208 1.13524 4.02438C1.10329 4.05374 1.07102 4.0839 1.03826 4.11504H1.0415C0.340044 4.78747 -0.00703477 5.5272 0.000587994 6.33408C-0.0148197 6.90384 0.272575 7.55194 0.863258 8.27805L0.866502 8.28129C1.19882 8.71157 1.71328 9.07195 2.41036 9.36259C2.31677 9.53791 2.27412 9.71389 2.28223 9.89083C2.25677 10.5371 2.63888 11.0539 3.42937 11.4412L3.42613 11.4379C3.96864 11.7102 4.56565 11.8873 5.21699 11.9691H5.21991C5.88212 12.0482 6.54887 11.9754 7.22016 11.7503L7.2234 11.7471C7.95486 11.5129 8.35985 10.9491 8.43915 10.0563C8.61837 9.96495 8.80602 9.84607 9.00178 9.69994L9.00502 9.69686C9.7227 9.19376 9.9822 8.34795 9.78319 7.15912C9.88229 7.07203 9.98236 6.97196 10.0834 6.85892H10.0866C10.5317 6.36279 10.7472 5.8472 10.7336 5.31182V5.30566C10.7229 4.75763 10.5915 4.34194 10.3397 4.0586C10.3366 4.05714 10.3346 4.05504 10.3327 4.0526ZM6.98239 5.19959C6.98596 5.19342 6.99018 5.18726 6.99488 5.18093C7.0197 5.13925 7.045 5.09757 7.06981 5.05589C7.2573 4.74449 7.38964 4.41639 7.46668 4.07142C7.52329 3.82019 7.55134 3.56183 7.55102 3.29633C7.55086 3.02645 7.51437 2.76808 7.44171 2.52124C7.70688 2.53908 7.93719 2.67969 8.13246 2.94308L8.1357 2.94633C8.34638 3.24151 8.45164 3.57269 8.45132 3.94021C8.45115 4.37616 8.33633 4.7826 8.10764 5.15904L8.11056 5.1558C7.87231 5.53872 7.56513 5.73577 7.18853 5.74648C7.03754 5.74664 6.92514 5.6988 6.85119 5.60278V5.59646C6.82426 5.55445 6.80318 5.50758 6.78858 5.45584C6.85524 5.37799 6.91995 5.29252 6.98239 5.19959ZM5.13849 3.99957C5.14369 3.98221 5.14774 3.96567 5.15098 3.94945C5.15926 3.90372 5.16753 3.85782 5.1758 3.81192L5.16964 3.83381C5.25089 3.49257 5.28008 3.14857 5.25705 2.80247V2.79939C5.24505 2.59211 5.21505 2.38484 5.16639 2.1774C5.37026 1.98829 5.56505 1.88628 5.75075 1.87103C5.95446 1.87136 6.10951 1.92439 6.21655 2.03046L6.22596 2.03987C6.2279 2.04311 6.23001 2.04603 6.23228 2.04927C6.26958 2.10734 6.30624 2.16151 6.34176 2.21179V2.21487C6.3823 2.27196 6.41896 2.32515 6.45107 2.3743C6.45367 2.37949 6.45675 2.38468 6.46048 2.38987C6.47005 2.41436 6.48254 2.4382 6.49794 2.46171C6.50313 2.47858 6.50913 2.49529 6.51659 2.51167C6.63158 2.75462 6.689 3.01607 6.68851 3.29616C6.68819 3.49744 6.66629 3.6932 6.62315 3.88377C6.56671 4.13872 6.46988 4.38168 6.33235 4.61198C6.30737 4.6535 6.28223 4.69519 6.25726 4.73703C6.17957 4.84797 6.09621 4.94171 6.00733 5.01826H6.01057C5.82487 5.17428 5.61354 5.25246 5.37594 5.25262C5.21553 5.25262 5.09681 5.19829 5.01977 5.09011H5.01653C4.93901 4.95063 4.90057 4.76914 4.90105 4.5463C4.9948 4.38946 5.07395 4.20717 5.13849 3.99957ZM2.24428 1.31781L2.24752 1.31473C2.49372 1.02896 2.73959 0.878774 2.98482 0.864663C3.24189 0.887856 3.50949 1.05361 3.78813 1.3616C3.80175 1.37571 3.81651 1.38917 3.83192 1.40215C3.84538 1.41318 3.85787 1.42372 3.86955 1.43329C3.89258 1.46183 3.9122 1.48778 3.92891 1.51146C3.93329 1.51665 3.9375 1.52184 3.9414 1.52703C4.06644 1.68971 4.16651 1.87006 4.2416 2.06776C4.26058 2.13312 4.27939 2.19978 4.29772 2.2679C4.35173 2.46269 4.38384 2.65747 4.39471 2.85226V2.85534C4.4132 3.11662 4.39228 3.37596 4.3321 3.63367C4.33 3.64097 4.32805 3.64827 4.32594 3.65557C4.31897 3.6932 4.31183 3.73066 4.30405 3.76813C4.29204 3.80559 4.27972 3.84208 4.26642 3.87744C4.18727 3.73374 4.07796 3.6087 3.93831 3.50247C3.93507 3.50068 3.93199 3.49874 3.92907 3.49598C3.7445 3.35731 3.52247 3.26778 3.26346 3.22724C3.29914 3.14144 3.35331 3.01639 3.42581 2.8521C3.47462 2.7423 3.47771 2.63185 3.43537 2.52091C3.39207 2.41063 3.31617 2.33148 3.20702 2.28347C3.09738 2.23449 2.98709 2.23141 2.87567 2.27406C2.76554 2.31753 2.6864 2.39343 2.63839 2.50226C2.46923 2.88324 2.37954 3.11338 2.36948 3.19285C2.36786 3.20631 2.36689 3.21994 2.36624 3.2334C2.36478 3.24945 2.36381 3.26519 2.363 3.28027C2.35554 3.28254 2.34808 3.28449 2.34126 3.2866C2.3364 3.28757 2.33121 3.2887 2.32569 3.28984C2.17681 3.3359 2.02678 3.40159 1.87546 3.48673C1.63494 2.62325 1.75772 1.90022 2.24428 1.31781ZM8.48862 9.00627L8.48538 9.00951C8.04455 9.33615 7.6905 9.44855 7.42273 9.34718C7.31731 9.29123 7.20783 9.28069 7.09463 9.31588C6.98061 9.35059 6.8953 9.42033 6.83853 9.52526C6.78258 9.63036 6.7722 9.73984 6.80739 9.85337C6.84227 9.96722 6.91217 10.0527 7.01661 10.1096C7.17264 10.2066 7.34131 10.2629 7.52296 10.2783C7.42743 10.5999 7.23395 10.8187 6.94152 10.9347L6.94477 10.9316C6.40047 11.1145 5.8599 11.1749 5.3229 11.1129H5.31966C4.77195 11.0443 4.26982 10.8962 3.81311 10.669L3.81019 10.6659C3.39126 10.4609 3.16923 10.2027 3.14441 9.89083C3.15463 9.8146 3.18999 9.73659 3.25064 9.65647C3.46992 9.71973 3.70104 9.77811 3.94448 9.83147C4.06044 9.85645 4.16894 9.83666 4.2695 9.77211C4.3707 9.70821 4.43412 9.61868 4.46023 9.50337C4.48537 9.38724 4.46558 9.2789 4.40087 9.17835C4.33681 9.07747 4.2476 9.01389 4.13197 8.98778C2.86967 8.71141 2.00505 8.29573 1.53795 7.74072L1.53471 7.73748C1.10232 7.20648 0.878179 6.73857 0.862771 6.33424C0.87153 5.75767 1.12989 5.22635 1.63802 4.74027C1.72658 4.6548 1.81529 4.5776 1.90368 4.509C1.9066 4.50689 1.90985 4.50494 1.91293 4.50267C1.92509 4.49407 1.93661 4.48467 1.94731 4.47445C2.16578 4.30318 2.37954 4.18349 2.58795 4.11504L2.57238 4.11829C2.64455 4.09785 2.7164 4.08228 2.78793 4.07142C2.7936 4.07174 2.79863 4.07174 2.80366 4.07142C2.84274 4.06785 2.88329 4.06558 2.92546 4.06509C3.12592 4.06525 3.29168 4.10904 3.42224 4.19646L3.41607 4.19014C3.51501 4.26539 3.56188 4.37162 3.55669 4.50883C3.5575 4.5716 3.55004 4.6321 3.53479 4.69016L3.53155 4.69956V4.70281C3.48776 4.83158 3.40845 4.95241 3.29427 5.0653V5.06838C3.01937 5.34588 2.82231 5.54812 2.70326 5.67479C2.66223 5.69247 2.62396 5.71745 2.58779 5.74972C2.50572 5.82384 2.45885 5.91532 2.44717 6.02479C2.43501 6.13475 2.4608 6.23466 2.52535 6.32484C2.59071 6.4142 2.67731 6.47048 2.78468 6.49367C2.93876 6.53876 3.14798 6.51476 3.41299 6.42182L3.41932 6.41858C3.54453 6.37268 3.63616 6.34673 3.69422 6.34041C3.96281 6.34868 4.24096 6.4588 4.52884 6.67175L4.53175 6.675C4.79515 6.87562 4.94857 7.08306 4.99123 7.29698C5.00696 7.41424 5.06227 7.50896 5.15682 7.58146C5.25154 7.6546 5.35777 7.68396 5.47568 7.66888C5.59294 7.65314 5.68766 7.598 5.76016 7.50328C5.83314 7.40857 5.8625 7.30233 5.84757 7.18426C5.81189 6.8041 5.59635 6.44485 5.20077 6.10605C5.25722 6.11237 5.31544 6.11562 5.37561 6.11562C5.62343 6.11562 5.85568 6.07101 6.07269 5.98116C6.09021 6.01198 6.10918 6.04215 6.12897 6.07199C6.34711 6.43026 6.70003 6.60931 7.18837 6.60947C7.23605 6.61012 7.28293 6.60915 7.32899 6.60623C7.36613 6.88049 7.50561 7.11387 7.74791 7.30623L7.751 7.30931C7.99671 7.5135 8.30697 7.61552 8.68243 7.61568C8.77618 7.61714 8.86992 7.60773 8.96367 7.58762C9.01394 8.22696 8.85549 8.70006 8.48862 9.00627ZM9.87029 5.32463C9.86315 5.65387 9.72027 5.97354 9.44195 6.28429H9.4452C9.31999 6.4215 9.19689 6.53081 9.07655 6.61239L9.06698 6.61856C9.05903 6.62391 9.05173 6.6291 9.04508 6.63429C8.92328 6.7097 8.80245 6.74928 8.6826 6.75301C8.52641 6.75317 8.39585 6.71473 8.29205 6.63721L8.28881 6.63413C8.22215 6.58158 8.18663 6.51687 8.18257 6.44031C8.18225 6.42085 8.18225 6.40512 8.18257 6.39344C8.18533 6.38647 8.18841 6.37917 8.19182 6.37155C8.20431 6.34706 8.21469 6.32192 8.22312 6.29645C8.45359 6.13313 8.65989 5.90493 8.84202 5.61219L8.84494 5.60894C9.06406 5.24808 9.20678 4.86678 9.27328 4.46504C9.28804 4.45515 9.30247 4.4438 9.31707 4.43066L9.32031 4.43374C9.45736 4.4378 9.57592 4.49618 9.67647 4.6089C9.79893 4.77433 9.86348 5.0108 9.87045 5.31831L9.87029 5.32463Z" fill="#EAEAEA"/>
</svg>
