<svg width="12" height="18" viewBox="0 0 12 18" fill="none" xmlns="http://www.w3.org/2000/svg">
<path d="M8.03183 17.3631C8.90694 17.0828 9.36252 16.3781 9.39835 15.2484C9.39962 15.2128 9.39729 15.178 9.39135 15.1446C9.53826 15.0477 9.67966 14.933 9.81597 14.8001C10.3292 14.304 10.5842 13.721 10.5809 13.0507C10.5823 12.9828 10.5707 12.8747 10.5463 12.7274C10.5342 12.6528 10.5272 12.6053 10.5253 12.5845C10.5253 12.5711 10.5253 12.5589 10.5253 12.5463C10.7483 12.4268 10.9718 12.2587 11.1965 12.042L11.1999 12.0386C11.7432 11.5173 12.0097 10.9505 11.9997 10.3378C11.9974 9.80292 11.8482 9.33463 11.5512 8.9329C11.2113 8.47075 10.8162 8.24816 10.3653 8.2649C10.3576 8.2649 10.3494 8.2649 10.3409 8.2649C10.3214 7.6798 10.1649 7.14663 9.87152 6.66498L9.8677 6.66138C9.46385 6.01755 8.97118 5.70549 8.38968 5.72585C8.18892 5.72203 7.99558 5.75446 7.8086 5.82336C7.91587 5.2514 8.0083 4.66714 8.08695 4.07038C8.2487 2.83742 8.29491 2.00025 8.22602 1.5593C8.22474 1.55697 8.22347 1.55464 8.22241 1.55231C8.1338 0.980347 7.81496 0.540882 7.2661 0.234125L7.2695 0.237728C6.72891 -0.0857753 6.11815 -0.0789909 5.43659 0.258717C4.76605 0.531553 4.37535 1.41494 4.26468 2.90886C4.2632 2.92624 4.26214 2.94384 4.26108 2.96101C3.93906 1.91715 3.53415 1.2818 3.04741 1.05518L3.04381 1.05158C2.36564 0.686947 1.81954 0.637341 1.40594 0.901909C1.00548 1.11751 0.729888 1.4408 0.5781 1.87221L0.5781 1.86542C0.441151 2.23281 0.380945 2.65108 0.397269 3.12107L0.397269 3.12806C0.401084 3.55481 0.622619 4.40809 1.06124 5.68747C1.40424 6.68936 1.73813 7.52059 2.06312 8.18138C1.76739 8.3461 1.46636 8.5759 1.15896 8.86994C0.377765 9.61806 -0.00785324 10.4412 0.000626533 11.3392C-0.016121 11.9744 0.302931 12.6964 0.957146 13.506C1.32941 13.9856 1.90307 14.3862 2.67854 14.7098C2.577 14.9048 2.53057 15.1007 2.53947 15.2972C2.51191 16.0152 2.93718 16.5927 3.81589 17.0292C4.41859 17.326 5.08192 17.5197 5.80546 17.61C6.54511 17.7029 7.28709 17.6206 8.03183 17.3631ZM9.8783 10.3274L9.8783 10.3236C10.0485 9.9986 10.1723 9.65771 10.2508 9.30134C10.2906 9.28184 10.3292 9.25661 10.3655 9.22482C10.517 9.24135 10.6548 9.3342 10.7795 9.50316C10.9552 9.74166 11.0419 10.0196 11.0402 10.338C11.0303 10.6978 10.8622 11.034 10.5357 11.3467L10.5325 11.3498C10.233 11.6388 9.94084 11.7908 9.65571 11.8056C9.48484 11.8056 9.34005 11.763 9.22091 11.677L9.21751 11.6736C9.14671 11.6148 9.10982 11.5432 9.10643 11.4578C9.10622 11.4179 9.10622 11.3914 9.10643 11.3778C9.10728 11.3736 9.10855 11.3704 9.11003 11.367L9.11003 11.381C9.13674 11.3267 9.15307 11.272 9.15858 11.2176C9.43078 11.0168 9.67055 10.72 9.8783 10.3274ZM4.24094 16.1668C3.77371 15.9353 3.52673 15.6455 3.49981 15.2972C3.51126 15.2124 3.55069 15.1253 3.6181 15.0364C3.8619 15.1068 4.11947 15.1719 4.3904 15.2315C4.51929 15.2592 4.63992 15.2372 4.75206 15.1651C4.86442 15.0939 4.93522 14.994 4.96427 14.8662C4.99225 14.7371 4.9702 14.616 4.89834 14.5043C4.82711 14.3922 4.72726 14.3214 4.599 14.2919C3.19242 13.9839 2.22678 13.52 1.7021 12.901C1.22468 12.3098 0.97771 11.7893 0.960962 11.3392C0.970714 10.698 1.25818 10.1067 1.82357 9.56549L1.81996 9.56549C2.17887 9.22227 2.52569 8.99162 2.8598 8.87354C2.8634 8.87227 2.86679 8.871 2.87019 8.86972C2.99908 8.83368 3.12776 8.81461 3.25623 8.81418C3.47713 8.81418 3.65774 8.86188 3.79893 8.95664C3.90663 9.03996 3.95772 9.1574 3.95178 9.30813C3.94606 9.53539 3.85087 9.74293 3.66686 9.93055C3.36413 10.236 3.1462 10.4597 3.01286 10.6017C2.96367 10.6208 2.91704 10.6503 2.87358 10.6886C2.78221 10.7711 2.73027 10.8733 2.71713 10.9945C2.70356 11.1171 2.7326 11.2286 2.80404 11.3286C2.87697 11.4281 2.97321 11.4906 3.09278 11.5163C3.26216 11.5671 3.49642 11.5415 3.79512 11.4402C3.7983 11.4372 3.8019 11.4353 3.80572 11.4332C3.94521 11.3819 4.04718 11.3528 4.11163 11.3462C4.41054 11.3549 4.72005 11.48 5.04037 11.7217C5.33335 11.9441 5.50464 12.176 5.5551 12.4172C5.57418 12.5468 5.63671 12.6515 5.74292 12.7304C5.84998 12.8111 5.96955 12.8421 6.10119 12.8243C6.23072 12.8052 6.33524 12.7427 6.41431 12.6362C6.49466 12.529 6.52603 12.4098 6.50801 12.2782C6.4565 11.8054 6.15949 11.3647 5.61763 10.9566C5.24219 10.6725 4.87332 10.494 4.51166 10.4213C4.78322 10.083 4.91657 9.71198 4.91169 9.30834C4.90703 8.83008 4.72853 8.45676 4.37619 8.18837L4.3692 8.18456C4.08385 7.96451 3.71265 7.85406 3.25623 7.85406C3.16613 7.85385 3.07561 7.85851 2.98509 7.86784C2.65819 7.22253 2.32091 6.3913 1.97302 5.37415C1.57977 4.23086 1.37456 3.47277 1.35718 3.09966L1.35718 3.09287C1.34616 2.75834 1.38792 2.46049 1.48247 2.19889L1.48247 2.1919C1.55327 1.99304 1.68111 1.84316 1.86512 1.74353C2.04362 1.68268 2.28572 1.73505 2.59205 1.89977L2.58887 1.89616C2.96134 2.14398 3.27891 2.83721 3.54157 3.97604L3.53818 3.97244C3.84282 5.31691 4.17989 6.584 4.55024 7.77414C4.58755 7.89264 4.66069 7.98295 4.76923 8.04528C4.87777 8.10888 4.99267 8.12732 5.11351 8.10103C5.23477 8.07263 5.33081 8.00669 5.40246 7.90239C5.47475 7.80042 5.50252 7.68785 5.48577 7.56511C5.22714 5.72754 5.14043 4.19821 5.22502 2.97776C5.29985 1.96527 5.51206 1.34625 5.86143 1.12026C6.20995 0.94791 6.52116 0.931376 6.79717 1.07172L6.80056 1.07532C7.0681 1.22287 7.22689 1.43295 7.27713 1.70473L7.27331 1.69795C7.32504 2.09141 7.27861 2.8406 7.13446 3.94467C6.98458 5.08477 6.78318 6.17909 6.52942 7.22761C6.49741 7.32513 6.47303 7.4271 6.45628 7.53395C6.4548 7.54264 6.45374 7.55048 6.45268 7.5579C6.44823 7.60072 6.44335 7.64609 6.4389 7.69379C6.42512 7.82523 6.45989 7.94267 6.5432 8.04507C6.62715 8.14746 6.73527 8.20576 6.86671 8.21869C6.99793 8.23247 7.11516 8.1977 7.21756 8.1146C7.32038 8.03023 7.37825 7.92232 7.39161 7.7911C7.39542 7.75484 7.39903 7.72008 7.40221 7.6868C7.40369 7.67874 7.40475 7.67068 7.40581 7.66242C7.41323 7.62383 7.42234 7.58567 7.43358 7.54773C7.43824 7.53713 7.44291 7.52568 7.44736 7.51296C7.50693 7.34124 7.60572 7.17801 7.74309 7.02262L7.7467 7.01901C7.94258 6.80596 8.15712 6.69487 8.3901 6.68512C8.64301 6.70526 8.86433 6.86616 9.05449 7.16868L9.05089 7.16486C9.27454 7.53055 9.38563 7.93843 9.38478 8.38913C9.38584 8.92569 9.26754 9.42218 9.0299 9.87755L9.0299 9.87415C8.79819 10.3121 8.50585 10.5428 8.15351 10.5661C8.02081 10.5699 7.92456 10.5161 7.86457 10.4063L7.86838 10.4097C7.78952 10.2485 7.75009 10.0387 7.75009 9.78024C7.7609 9.69078 7.82111 9.50274 7.93092 9.21676C7.93219 9.21337 7.93367 9.21019 7.93431 9.20637C8.04858 8.92845 8.12383 8.76033 8.1603 8.70204C8.24785 8.60134 8.28728 8.48559 8.27859 8.35415C8.26863 8.22272 8.21287 8.11375 8.11196 8.02726C8.01148 7.93949 7.89552 7.90027 7.76408 7.90875C7.63286 7.91935 7.52389 7.97511 7.43718 8.0758C7.35366 8.15551 7.22159 8.41542 7.04075 8.8551C7.03969 8.85891 7.03863 8.86209 7.03715 8.86548C6.86098 9.32509 6.77894 9.62972 6.79018 9.78003C6.78975 10.2263 6.86628 10.5871 7.01977 10.8616L7.02337 10.8654C7.25911 11.3011 7.6337 11.5209 8.14652 11.5262C8.16199 11.8811 8.31887 12.1792 8.61609 12.4198L8.6199 12.4236C8.88235 12.6369 9.20352 12.7503 9.58299 12.7643C9.58744 12.7986 9.59338 12.8381 9.60038 12.8828L9.60038 12.8862C9.6131 12.9612 9.62009 13.0157 9.62136 13.0496C9.61818 13.455 9.46046 13.8086 9.14862 14.1104C8.85013 14.4019 8.51157 14.5584 8.13316 14.5796C8.00045 14.5862 7.88958 14.6383 7.79927 14.7365C7.70938 14.8342 7.66783 14.9493 7.67398 15.0805C7.68013 15.213 7.73228 15.3243 7.83022 15.4142C7.92816 15.5041 8.04285 15.5459 8.1745 15.5397C8.25485 15.5363 8.33371 15.5293 8.4113 15.5189C8.33413 15.9921 8.10327 16.3052 7.71914 16.4576C7.11856 16.6643 6.52073 16.7301 5.9246 16.6565C5.31215 16.5804 4.751 16.4169 4.24094 16.1668Z" fill="#EAEAEA"/>
</svg>
