<svg width="75" height="30" viewBox="0 0 75 30" fill="none" xmlns="http://www.w3.org/2000/svg">
<path d="M23.5067 29H17.1867C17.0801 29 16.9867 28.96 16.9067 28.88L11.1867 21.52C10.4934 21.5467 8.97339 21.56 6.62672 21.56V28.64C6.62672 28.7467 6.58672 28.84 6.50672 28.92C6.45339 28.9733 6.37339 29 6.26672 29H1.30672C1.20005 29 1.10672 28.9733 1.02672 28.92C0.973385 28.84 0.946719 28.7467 0.946719 28.64V1.36C0.946719 1.25333 0.973385 1.17333 1.02672 1.12C1.10672 1.04 1.20005 0.999998 1.30672 0.999998H10.1467C13.2134 0.999998 15.6534 1.48 17.4667 2.44C19.3067 3.37333 20.6401 4.62667 21.4667 6.2C22.2934 7.74667 22.7067 9.44 22.7067 11.28C22.7067 13.1733 22.2534 14.8933 21.3467 16.44C20.4401 17.9867 19.0801 19.2133 17.2667 20.12C21.6134 25.6667 23.8134 28.5067 23.8667 28.64C23.8667 28.7467 23.8267 28.84 23.7467 28.92C23.6934 28.9733 23.6134 29 23.5067 29ZM22.7467 28.28L16.4667 20.2L16.3867 19.96C16.3867 19.8267 16.4534 19.7333 16.5867 19.68C18.4267 18.8533 19.7867 17.72 20.6667 16.28C21.5734 14.8133 22.0267 13.1467 22.0267 11.28C22.0267 8.4 21.1067 6.13333 19.2667 4.48C17.2401 2.64 14.2001 1.72 10.1467 1.72H1.66672V28.28H5.90672V21.2C5.90672 21.0933 5.93339 21.0133 5.98672 20.96C6.06672 20.88 6.16005 20.84 6.26672 20.84C9.25339 20.84 10.9467 20.8267 11.3467 20.8C11.4001 20.8 11.4401 20.8133 11.4667 20.84C11.5201 20.84 13.4801 23.32 17.3467 28.28H22.7467ZM3.78672 26.52C3.54672 26.52 3.42672 26.4 3.42672 26.16V3.84C3.42672 3.6 3.54672 3.48 3.78672 3.48H9.34672C16.6534 3.48 20.3067 6.01333 20.3067 11.08V11.28C20.3067 13.9467 19.4001 15.92 17.5867 17.2C15.8001 18.4533 13.0534 19.08 9.34672 19.08H6.26672C6.02672 19.08 5.90672 18.96 5.90672 18.72C5.90672 18.48 6.02672 18.36 6.26672 18.36H9.34672C12.9467 18.36 15.5601 17.7867 17.1867 16.64C18.8134 15.4933 19.6267 13.7067 19.6267 11.28C19.6267 8.82667 18.8001 7.04 17.1467 5.92C15.5201 4.77333 12.9201 4.2 9.34672 4.2H4.14672V26.16C4.14672 26.4 4.02672 26.52 3.78672 26.52ZM10.3467 16.6H6.26672C6.02672 16.6 5.90672 16.48 5.90672 16.24V6.32C5.90672 6.08 6.02672 5.96 6.26672 5.96H10.1467C15.1067 5.96 17.5867 7.64 17.5867 11V11.28C17.5867 14.8267 15.1734 16.6 10.3467 16.6ZM10.1467 15.88C12.4934 15.88 14.2001 15.5067 15.2667 14.76C16.3334 14.0133 16.8667 12.8533 16.8667 11.28C16.8667 8.21333 14.7734 6.68 10.5867 6.68H6.62672V15.88H10.1467ZM18.5867 26.52C18.5601 26.52 18.5067 26.5067 18.4267 26.48C18.3734 26.4533 16.8801 24.5467 13.9467 20.76C13.8934 20.68 13.8667 20.6 13.8667 20.52C13.8667 20.44 13.8934 20.3733 13.9467 20.32C14.0267 20.24 14.1201 20.2 14.2267 20.2C14.3601 20.2 14.4534 20.24 14.5067 20.32L18.8667 25.96C18.9201 26.04 18.9467 26.12 18.9467 26.2C18.9467 26.28 18.9067 26.36 18.8267 26.44C18.7467 26.4933 18.6667 26.52 18.5867 26.52ZM32.7511 29H27.7911C27.6844 29 27.5911 28.9733 27.5111 28.92C27.4578 28.84 27.4311 28.7467 27.4311 28.64V1.36C27.4311 1.25333 27.4578 1.17333 27.5111 1.12C27.5911 1.04 27.6844 0.999998 27.7911 0.999998H36.6311C39.6978 0.999998 42.1378 1.48 43.9511 2.44C45.7911 3.37333 47.1244 4.62667 47.9511 6.2C48.7778 7.74667 49.1911 9.44 49.1911 11.28C49.1911 13.12 48.7511 14.8267 47.8711 16.4C46.9911 17.9467 45.6178 19.2 43.7511 20.16C41.9111 21.0933 39.5378 21.56 36.6311 21.56H33.1111V28.64C33.1111 28.7467 33.0711 28.84 32.9911 28.92C32.9378 28.9733 32.8578 29 32.7511 29ZM32.3911 28.28V21.2C32.3911 21.0933 32.4178 21.0133 32.4711 20.96C32.5511 20.88 32.6444 20.84 32.7511 20.84H36.6311C40.4978 20.84 43.4444 19.96 45.4711 18.2C47.4978 16.4133 48.5111 14.1067 48.5111 11.28C48.5111 8.42667 47.5378 6.12 45.5911 4.36C43.6711 2.6 40.6844 1.72 36.6311 1.72H28.1511V28.28H32.3911ZM30.2711 26.52C30.0311 26.52 29.9111 26.4 29.9111 26.16V3.84C29.9111 3.6 30.0311 3.48 30.2711 3.48H35.8311C43.1378 3.48 46.7911 6.01333 46.7911 11.08V11.28C46.7911 13.9467 45.8844 15.92 44.0711 17.2C42.2844 18.4533 39.5378 19.08 35.8311 19.08H32.7511C32.5111 19.08 32.3911 18.96 32.3911 18.72C32.3911 18.48 32.5111 18.36 32.7511 18.36H35.8311C39.4311 18.36 42.0444 17.7867 43.6711 16.64C45.2978 15.4933 46.1111 13.7067 46.1111 11.28C46.1111 8.82667 45.2844 7.04 43.6311 5.92C42.0044 4.77333 39.4044 4.2 35.8311 4.2H30.6311V26.16C30.6311 26.4 30.5111 26.52 30.2711 26.52ZM36.8311 16.6H32.7511C32.5111 16.6 32.3911 16.48 32.3911 16.24V6.32C32.3911 6.08 32.5111 5.96 32.7511 5.96H36.6311C41.5911 5.96 44.0711 7.64 44.0711 11V11.28C44.0711 14.8267 41.6578 16.6 36.8311 16.6ZM36.6311 15.88C38.9778 15.88 40.6844 15.5067 41.7511 14.76C42.8178 14.0133 43.3511 12.8533 43.3511 11.28C43.3511 8.21333 41.2578 6.68 37.0711 6.68H33.1111V15.88H36.6311ZM62.9408 29.36C60.7008 29.36 58.5674 28.9867 56.5408 28.24C54.5408 27.4933 52.9274 26.7333 51.7008 25.96C51.5941 25.8533 51.5408 25.7467 51.5408 25.64C51.5674 25.5333 52.3808 24.04 53.9808 21.16H54.0208C54.0741 21.0533 54.1808 21 54.3408 21C54.4208 21 54.4608 21.0133 54.4608 21.04C54.4874 21.04 54.9274 21.2667 55.7808 21.72C58.3141 23.0533 60.8341 23.72 63.3408 23.72C64.9941 23.72 66.2474 23.5067 67.1008 23.08C67.9541 22.6533 68.3808 22.08 68.3808 21.36C68.3808 20.8267 68.2341 20.4 67.9408 20.08C67.1408 19.2 65.2208 18.36 62.1808 17.56C59.8341 17 57.6474 16.1467 55.6208 15C53.4341 13.6667 52.3408 11.76 52.3408 9.28C52.3408 7.76 52.7408 6.34667 53.5408 5.04C54.3674 3.70666 55.5541 2.64 57.1008 1.84C58.6741 1.04 60.5808 0.639998 62.8208 0.639998C66.4208 0.639998 69.8741 1.65333 73.1808 3.68C73.2874 3.70667 73.3408 3.8 73.3408 3.96L73.3008 4.12C72.0208 7.16 71.3541 8.72 71.3008 8.8C71.2741 8.88 71.1941 8.92 71.0608 8.92C71.0074 8.89333 70.9541 8.88 70.9008 8.88C70.8741 8.85333 70.5008 8.62667 69.7808 8.2C69.0874 7.77333 68.1541 7.36 66.9808 6.96C65.8341 6.53333 64.5674 6.32 63.1808 6.32C61.6341 6.32 60.3808 6.53333 59.4208 6.96C58.4608 7.36 57.9808 7.90667 57.9808 8.6C57.9808 8.94667 58.1274 9.28 58.4208 9.6C59.0874 10.3733 60.9274 11.24 63.9408 12.2C66.3674 12.8667 68.6474 13.84 70.7808 15.12C73.0741 16.6133 74.2208 18.5467 74.2208 20.92C74.2208 23.4 73.2208 25.4267 71.2208 27C69.2208 28.5733 66.4608 29.36 62.9408 29.36ZM62.9408 28.64C66.2208 28.64 68.7941 27.9467 70.6608 26.56C72.5541 25.1467 73.5008 23.2667 73.5008 20.92C73.5008 19.32 73.0208 18.0267 72.0608 17.04C71.1008 16.0533 69.8874 15.2533 68.4208 14.64C66.9808 14 65.5008 13.4533 63.9808 13C62.6741 12.6 61.4741 12.1733 60.3808 11.72C58.3274 10.8667 57.3008 9.82667 57.3008 8.6C57.3008 7.61333 57.8608 6.86666 58.9808 6.36C60.1008 5.85333 61.5008 5.6 63.1808 5.6C64.4608 5.6 65.6208 5.76 66.6608 6.08C67.7274 6.4 68.6208 6.76 69.3408 7.16C70.0874 7.53333 70.6074 7.82667 70.9008 8.04L72.5408 4.16C69.4208 2.29333 66.1808 1.36 62.8208 1.36C60.6608 1.36 58.8474 1.73333 57.3808 2.48C55.9408 3.22666 54.8474 4.2 54.1008 5.4C53.3808 6.6 53.0208 7.89333 53.0208 9.28C53.0208 10.9067 53.4874 12.2 54.4208 13.16C55.3541 14.12 56.5141 14.88 57.9008 15.44C59.3141 15.9733 60.7674 16.44 62.2608 16.84C64.0474 17.2933 65.6074 17.84 66.9408 18.48C68.3808 19.1733 69.1008 20.1333 69.1008 21.36C69.1008 22.3733 68.5541 23.1333 67.4608 23.64C66.3941 24.1467 65.0208 24.4 63.3408 24.4C61.9274 24.4 60.5808 24.2267 59.3008 23.88C58.0474 23.5067 56.9941 23.12 56.1408 22.72C55.2874 22.2933 54.7141 22 54.4208 21.84L52.3808 25.52C53.6074 26.24 55.1541 26.9467 57.0208 27.64C58.9141 28.3067 60.8874 28.64 62.9408 28.64ZM62.2608 26.92C59.8074 26.92 57.3808 26.2667 54.9808 24.96C54.8474 24.9067 54.7808 24.8 54.7808 24.64C54.8074 24.5867 54.8474 24.52 54.9008 24.44C54.9541 24.36 55.0341 24.32 55.1408 24.32C55.2208 24.32 55.2741 24.3333 55.3008 24.36C57.5674 25.5867 59.8874 26.2 62.2608 26.2C64.7941 26.2 66.9008 25.76 68.5808 24.88C70.2074 23.9467 71.0208 22.76 71.0208 21.32C71.0208 19.8533 70.1808 18.5867 68.5008 17.52C66.8741 16.6133 65.1408 15.9333 63.3008 15.48C61.4608 15 59.6341 14.28 57.8208 13.32C55.7941 12.1733 54.7808 10.7067 54.7808 8.92C54.7808 7.32 55.4741 5.97333 56.8608 4.88C58.2474 3.76 60.2341 3.2 62.8208 3.2C65.3541 3.2 67.7808 3.84 70.1008 5.12C70.2341 5.17333 70.3008 5.28 70.3008 5.44C70.2474 5.68 70.1141 5.8 69.9008 5.8L69.7808 5.76C67.4874 4.50667 65.1674 3.88 62.8208 3.88C60.3141 3.88 58.4608 4.37333 57.2608 5.36C56.0874 6.32 55.5008 7.50667 55.5008 8.92C55.5008 10.4133 56.3941 11.6667 58.1808 12.68C59.8874 13.6133 61.6608 14.3067 63.5008 14.76C68.9674 16.1733 71.7008 18.36 71.7008 21.32C71.7008 23.1067 70.7808 24.4933 68.9408 25.48C67.1008 26.44 64.8741 26.92 62.2608 26.92Z" fill="white"/>
</svg>
